<svg width="500" height="500" viewBox="0 0 500 500" fill="none" xmlns="http://www.w3.org/2000/svg">
<path d="M426.229 142.742L245.092 30.2374L64.5801 142.742V357.025L245.404 464.14L426.229 357.025V142.742Z" fill="#203E8D"/>
<path d="M436.529 361.882V135.431L421.287 126.411L276.773 40.8048L245.404 22.2318L214.036 40.8048L69.5221 126.411L54.28 135.431V361.829L69.5221 370.848L215.857 457.522L245.456 475.027L275.056 457.522L421.391 370.848L436.529 361.882ZM69.5221 353.396V144.984L95.5325 129.56L245.404 40.8048L394.808 129.293L421.287 144.984V353.396L245.404 457.575L69.5221 353.396Z" fill="#428BCA"/>
<path d="M184.044 316.606H190.944V322.606H184.244V342.906H176.444V322.606H172.294V316.606H176.444V315.406C176.444 312.339 177.344 309.906 179.144 308.106C180.977 306.306 183.544 305.406 186.844 305.406C188.01 305.406 189.11 305.539 190.144 305.806C191.21 306.039 192.094 306.389 192.794 306.856L190.744 312.506C189.844 311.872 188.794 311.556 187.594 311.556C185.227 311.556 184.044 312.856 184.044 315.456V316.606ZM206.284 319.556C207.217 318.256 208.467 317.272 210.034 316.606C211.634 315.939 213.467 315.606 215.534 315.606V322.806C214.667 322.739 214.084 322.706 213.784 322.706C211.55 322.706 209.8 323.339 208.534 324.606C207.267 325.839 206.634 327.706 206.634 330.206V342.906H198.834V316.006H206.284V319.556ZM232.727 343.306C229.894 343.306 227.344 342.722 225.077 341.556C222.844 340.356 221.094 338.706 219.827 336.606C218.561 334.506 217.927 332.122 217.927 329.456C217.927 326.789 218.561 324.406 219.827 322.306C221.094 320.206 222.844 318.572 225.077 317.406C227.344 316.206 229.894 315.606 232.727 315.606C235.561 315.606 238.094 316.206 240.327 317.406C242.561 318.572 244.311 320.206 245.577 322.306C246.844 324.406 247.477 326.789 247.477 329.456C247.477 332.122 246.844 334.506 245.577 336.606C244.311 338.706 242.561 340.356 240.327 341.556C238.094 342.722 235.561 343.306 232.727 343.306ZM232.727 336.906C234.727 336.906 236.361 336.239 237.627 334.906C238.927 333.539 239.577 331.722 239.577 329.456C239.577 327.189 238.927 325.389 237.627 324.056C236.361 322.689 234.727 322.006 232.727 322.006C230.727 322.006 229.077 322.689 227.777 324.056C226.477 325.389 225.827 327.189 225.827 329.456C225.827 331.722 226.477 333.539 227.777 334.906C229.077 336.239 230.727 336.906 232.727 336.906ZM261.741 343.306C259.508 343.306 257.324 343.039 255.191 342.506C253.058 341.939 251.358 341.239 250.091 340.406L252.691 334.806C253.891 335.572 255.341 336.206 257.041 336.706C258.741 337.172 260.408 337.406 262.041 337.406C265.341 337.406 266.991 336.589 266.991 334.956C266.991 334.189 266.541 333.639 265.641 333.306C264.741 332.972 263.358 332.689 261.491 332.456C259.291 332.122 257.474 331.739 256.041 331.306C254.608 330.872 253.358 330.106 252.291 329.006C251.258 327.906 250.741 326.339 250.741 324.306C250.741 322.606 251.224 321.106 252.191 319.806C253.191 318.472 254.624 317.439 256.491 316.706C258.391 315.972 260.624 315.606 263.191 315.606C265.091 315.606 266.974 315.822 268.841 316.256C270.741 316.656 272.308 317.222 273.541 317.956L270.941 323.506C268.574 322.172 265.991 321.506 263.191 321.506C261.524 321.506 260.274 321.739 259.441 322.206C258.608 322.672 258.191 323.272 258.191 324.006C258.191 324.839 258.641 325.422 259.541 325.756C260.441 326.089 261.874 326.406 263.841 326.706C266.041 327.072 267.841 327.472 269.241 327.906C270.641 328.306 271.858 329.056 272.891 330.156C273.924 331.256 274.441 332.789 274.441 334.756C274.441 336.422 273.941 337.906 272.941 339.206C271.941 340.506 270.474 341.522 268.541 342.256C266.641 342.956 264.374 343.306 261.741 343.306ZM296.603 341.606C295.837 342.172 294.887 342.606 293.753 342.906C292.653 343.172 291.487 343.306 290.253 343.306C287.053 343.306 284.57 342.489 282.803 340.856C281.07 339.222 280.203 336.822 280.203 333.656V322.606H276.053V316.606H280.203V310.056H288.003V316.606H294.703V322.606H288.003V333.556C288.003 334.689 288.287 335.572 288.853 336.206C289.453 336.806 290.287 337.106 291.353 337.106C292.587 337.106 293.637 336.772 294.503 336.106L296.603 341.606ZM308.432 319.556C309.365 318.256 310.615 317.272 312.182 316.606C313.782 315.939 315.615 315.606 317.682 315.606V322.806C316.815 322.739 316.232 322.706 315.932 322.706C313.699 322.706 311.949 323.339 310.682 324.606C309.415 325.839 308.782 327.706 308.782 330.206V342.906H300.982V316.006H308.432V319.556Z" fill="#F8EEEE"/>
<path d="M313.572 206.722H284.987L307.197 183.925L297.531 173.933L265.587 206.722H251.877V192.649L283.821 159.861L274.087 149.94L251.877 172.737V143.396H238.166V172.737L215.956 149.94L206.222 159.861L238.166 192.649V206.722H224.456L192.511 173.933L182.846 183.925L205.056 206.722H176.471V220.794H205.056L182.846 243.591L192.511 253.583L224.456 220.794H238.166V234.866L206.222 267.655L215.956 277.576L238.166 254.779V284.119H251.877V254.779L274.087 277.576L283.821 267.655L251.877 234.866V220.794H265.587L297.531 253.583L307.197 243.591L284.987 220.794H313.572V206.722Z" fill="#F8EEEE"/>
</svg>
